<?xml version="1.0" standalone="no"?>
<!DOCTYPE svg PUBLIC "-//W3C//DTD SVG 20010904//EN"
 "http://www.w3.org/TR/2001/REC-SVG-20010904/DTD/svg10.dtd">
<svg version="1.0" xmlns="http://www.w3.org/2000/svg"
 width="213.000000pt" height="227.000000pt" viewBox="0 0 213.000000 227.000000"
 preserveAspectRatio="xMidYMid meet">
<metadata>
Created by potrace 1.10, written by Peter Selinger 2001-2011
</metadata>
<g transform="translate(0.000000,227.000000) scale(0.100000,-0.100000)"
fill="#000000" stroke="none">
<path d="M955 1946 c-61 -46 -211 -159 -334 -252 -123 -93 -229 -176 -234
-185 -6 -9 -7 -24 -4 -33 5 -13 22 -16 87 -16 l80 0 0 -310 0 -310 140 0 140
0 0 299 0 300 -37 3 c-20 2 -38 8 -40 14 -2 6 68 65 156 131 152 115 160 119
178 103 10 -9 77 -61 148 -115 72 -54 133 -103 137 -109 4 -7 -8 -19 -30 -30
-178 -92 -331 -299 -363 -494 -15 -96 -14 -102 25 -102 33 0 33 1 39 52 19
159 115 322 250 424 111 84 272 144 390 144 53 0 71 11 62 38 -6 20 -64 67
-318 260 -59 45 -163 125 -231 177 -68 52 -126 95 -128 95 -2 0 -53 -38 -113
-84z m207 -29 c46 -35 160 -121 253 -192 253 -191 274 -209 275 -227 0 -4 -8
-6 -17 -6 -24 2 -152 -21 -178 -31 -11 -5 -33 -14 -48 -20 -44 -17 -60 -14
-54 11 9 35 -8 54 -130 146 -192 145 -197 147 -255 104 -21 -15 -81 -58 -133
-96 -141 -102 -173 -150 -120 -180 43 -24 44 -31 44 -287 0 -295 6 -282 -113
-278 -56 2 -81 8 -92 20 -12 13 -15 65 -17 297 -2 320 1 309 -84 314 -29 2
-53 5 -53 8 0 11 17 27 55 55 22 17 42 32 45 35 3 3 59 46 125 95 66 50 127
95 135 102 96 76 258 192 267 193 7 0 50 -28 95 -63z"/>
<path d="M1652 1369 c-118 -20 -267 -100 -341 -184 -70 -80 -124 -195 -137
-294 l-7 -51 35 0 c34 0 34 0 50 71 25 105 54 156 134 236 80 82 162 127 264
146 l60 12 0 37 c0 21 -1 37 -2 37 -2 -1 -27 -5 -56 -10z"/>
<path d="M1607 1156 c-78 -28 -122 -58 -169 -118 -41 -52 -66 -105 -74 -158
l-7 -40 35 0 c33 0 36 3 48 45 32 115 147 215 246 215 21 0 24 5 24 40 0 48
-7 49 -103 16z"/>
<path d="M380 566 l0 -116 29 0 c28 0 29 2 24 35 -6 35 -5 35 30 35 53 0 86
19 95 54 18 68 -11 97 -108 104 l-70 5 0 -117z m104 58 c9 -3 16 -16 16 -29 0
-22 -17 -35 -46 -35 -9 0 -14 11 -14 35 0 36 10 42 44 29z"/>
<path d="M602 578 c-24 -57 -45 -109 -49 -115 -3 -9 5 -13 27 -13 23 0 33 5
37 20 4 17 14 20 55 20 41 0 51 -3 55 -20 4 -15 14 -20 39 -20 l34 0 -16 38
c-9 20 -30 72 -47 114 -30 73 -34 78 -62 78 -30 0 -33 -4 -73 -102z m76 -36
c-27 -5 -30 1 -17 34 l11 29 13 -30 c12 -27 12 -30 -7 -33z"/>
<path d="M830 565 l0 -115 30 0 31 0 -7 60 c-4 34 -3 60 2 60 5 0 30 -27 54
-60 36 -47 51 -60 73 -60 l27 0 0 115 0 115 -30 0 c-30 0 -30 0 -30 -59 0 -33
5 -63 10 -66 15 -9 12 -47 -2 -42 -7 2 -13 13 -13 25 0 11 -22 48 -48 81 -35
46 -53 61 -72 61 l-25 0 0 -115z"/>
<path d="M1070 652 c0 -26 2 -28 35 -24 l35 4 0 -91 0 -91 30 0 30 0 0 91 0
92 35 -6 c33 -5 35 -4 35 24 l0 29 -100 0 -100 0 0 -28z"/>
<path d="M1300 565 l0 -115 90 0 c89 0 90 0 90 25 0 24 -2 25 -65 25 -58 0
-65 2 -65 20 0 18 7 20 60 20 57 0 60 1 60 25 0 24 -3 25 -60 25 -53 0 -60 2
-60 20 0 18 7 20 65 20 63 0 65 1 65 25 0 25 -1 25 -90 25 l-90 0 0 -115z"/>
<path d="M1551 578 c-24 -57 -46 -109 -48 -115 -4 -9 5 -13 27 -13 23 0 33 5
37 20 4 17 14 20 55 20 41 0 51 -3 55 -20 4 -15 14 -20 39 -20 33 0 42 9 27
24 -4 4 -26 51 -48 104 -38 90 -43 97 -71 100 -29 3 -31 0 -73 -100z m77 -36
c-27 -5 -30 1 -17 34 l11 29 13 -30 c12 -27 12 -30 -7 -33z"/>
<path d="M398 339 c-28 -16 -21 -39 18 -55 42 -18 40 -40 -5 -38 -17 1 -28 -2
-25 -7 9 -15 61 -10 75 7 11 14 10 19 -10 35 -13 11 -29 19 -37 19 -8 0 -14 7
-14 16 0 12 7 15 30 12 32 -5 41 6 14 16 -21 8 -26 7 -46 -5z"/>
<path d="M512 288 c1 -61 1 -61 7 -18 l6 45 18 -32 c10 -18 20 -33 22 -33 2 0
12 15 22 33 l18 32 6 -45 c6 -43 6 -43 7 18 1 34 0 62 -2 62 -3 0 -15 -18 -27
-40 l-23 -40 -23 40 c-13 22 -26 40 -29 40 -2 0 -3 -28 -2 -62z"/>
<path d="M708 344 c-19 -29 -46 -114 -38 -114 6 0 10 7 10 15 0 21 50 19 66
-2 24 -34 21 -8 -5 52 -15 32 -30 55 -33 49z"/>
<path d="M807 343 c-11 -10 -8 -113 3 -113 6 0 10 9 10 20 0 11 7 20 15 20 8
0 19 -9 25 -20 6 -11 15 -20 20 -20 6 0 5 9 -2 20 -10 15 -10 22 0 32 16 16
15 33 -4 52 -16 16 -55 22 -67 9z m61 -35 c3 -13 -3 -18 -22 -18 -20 0 -26 5
-26 21 0 15 5 20 22 17 13 -2 24 -11 26 -20z"/>
<path d="M920 340 c0 -5 9 -10 19 -10 17 0 21 -8 24 -52 l3 -53 2 53 c2 45 5
52 22 52 11 0 20 5 20 10 0 6 -20 10 -45 10 -25 0 -45 -4 -45 -10z"/>
<path d="M1113 290 c0 -36 2 -53 4 -37 4 23 9 27 38 27 29 0 34 -4 38 -27 2
-16 4 1 4 37 0 36 -2 53 -4 38 -4 -24 -9 -28 -38 -28 -29 0 -34 4 -38 28 -2
15 -4 -2 -4 -38z"/>
<path d="M1261 324 c-25 -32 -26 -43 -5 -72 18 -26 56 -29 78 -6 24 23 20 70
-6 88 -31 22 -43 20 -67 -10z m71 -19 c10 -22 9 -29 -9 -47 -26 -25 -50 -18
-59 17 -13 51 46 77 68 30z"/>
<path d="M1392 299 c5 -53 18 -69 54 -69 32 0 44 20 43 74 l-2 51 -6 -47 c-8
-56 -21 -73 -50 -63 -18 5 -21 14 -21 56 0 30 -4 49 -11 49 -8 0 -10 -17 -7
-51z"/>
<path d="M1546 334 c-24 -23 -20 -33 20 -50 42 -18 40 -40 -5 -38 -17 1 -28
-2 -25 -7 9 -15 61 -10 75 7 11 14 10 19 -10 35 -13 11 -29 19 -37 19 -8 0
-14 7 -14 16 0 12 7 15 30 12 32 -5 41 6 14 16 -24 9 -31 8 -48 -10z"/>
<path d="M1660 290 l0 -60 43 2 42 1 -37 4 c-30 3 -38 9 -38 24 0 14 7 19 30
19 17 0 30 5 30 10 0 6 -13 10 -30 10 -20 0 -30 5 -30 15 0 10 11 15 35 15 19
0 35 5 35 10 0 6 -18 10 -40 10 l-40 0 0 -60z"/>
</g>
</svg>
